<?xml version="1.0" encoding="utf-8"?>
<svg viewBox="-90.846 -30.775 699.449 202.267" xmlns="http://www.w3.org/2000/svg">
  <g transform="matrix(1, 0, 0, 1, -92.519958, -35.940758)">
    <g transform="matrix(0.7, 0, 0, 0.7, 1.398596, 5.149198)">
      <svg viewBox="0 0 356 103" data-background-color="#ffffff" preserveAspectRatio="xMidYMid meet" height="289" width="1000" xmlns="http://www.w3.org/2000/svg">
        <g id="tight-bounds" transform="matrix(1,0,0,1,-0.06049999999996203,0.008499999999997954)">
          <svg viewBox="0 0 356.12052 102.98287317809945" height="102.98287317809945" width="356.12052">
            <g>
              <svg viewBox="0 0 356.12052 102.98287317809945" height="102.98287317809945" width="356.12052">
                <g>
                  <svg viewBox="0 0 356.12052 102.98287317809945" height="102.98287317809945" width="356.12052" transform="matrix(1.000787377357483, 0, 0, 1, 186.8811328304005, 32.08821487426758)">
                    <g>
                      <path d="M0 102.983v-102.983h356.121v102.983z" fill="#528265" stroke="transparent" stroke-width="0" rx="0%" data-fill-palette-color="tertiary"/>
                      <path d="M3.283 99.7v-96.417h349.554v96.417z" fill="#ffffff" stroke="transparent" stroke-width="0" rx="0%" data-fill-palette-color="quaternary"/>
                      <path d="M9.85 93.133v-83.283h336.421v83.283z" fill="#528265" stroke="transparent" stroke-width="0" data-fill-palette-color="tertiary"/>
                    </g>
                    <g transform="matrix(1,0,0,1,19.69974,19.69974)">
                      <svg viewBox="0 0 316.72104 63.58339317809945" height="63.58339317809945" width="316.72104">
                        <g>
                          <svg viewBox="0 0 316.72104 63.58339317809945" height="63.58339317809945" width="316.72104">
                            <g transform="matrix(1,0,0,1,0,0)">
                              <svg width="316.72104" viewBox="2.05 -34.85 238.32999999999998 47.85" height="63.58339317809945" data-palette-color="#ffffff">
                                <path d="M16.8-34.85L21.4-34.85 21.4-9.1Q21.4-4.8 18.75-2.23 16.1 0.35 11.75 0.35L11.75 0.35Q7.35 0.35 4.7-2.27 2.05-4.9 2.05-9.45L2.05-9.45 6.6-9.45Q6.65-6.9 7.93-5.3 9.2-3.7 11.75-3.7L11.75-3.7Q14.3-3.7 15.55-5.23 16.8-6.75 16.8-9.1L16.8-9.1 16.8-34.85ZM42.3 0.45Q38.45 0.45 35.32-1.3 32.2-3.05 30.42-6.28 28.65-9.5 28.65-13.75L28.65-13.75Q28.65-17.95 30.47-21.18 32.3-24.4 35.45-26.13 38.6-27.85 42.5-27.85L42.5-27.85Q46.4-27.85 49.55-26.13 52.7-24.4 54.52-21.2 56.35-18 56.35-13.75L56.35-13.75Q56.35-9.5 54.47-6.28 52.6-3.05 49.4-1.3 46.2 0.45 42.3 0.45L42.3 0.45ZM42.3-3.55Q44.75-3.55 46.9-4.7 49.05-5.85 50.37-8.15 51.7-10.45 51.7-13.75L51.7-13.75Q51.7-17.05 50.4-19.35 49.1-21.65 47-22.78 44.9-23.9 42.45-23.9L42.45-23.9Q39.95-23.9 37.87-22.78 35.8-21.65 34.55-19.35 33.3-17.05 33.3-13.75L33.3-13.75Q33.3-10.4 34.52-8.1 35.75-5.8 37.8-4.67 39.85-3.55 42.3-3.55L42.3-3.55ZM82.09-27.4L86.65-27.4 86.65 0 82.09 0 82.09-4.05Q80.8-1.95 78.47-0.78 76.15 0.4 73.34 0.4L73.34 0.4Q70.15 0.4 67.59-0.93 65.05-2.25 63.57-4.9 62.1-7.55 62.1-11.35L62.1-11.35 62.1-27.4 66.59-27.4 66.59-11.95Q66.59-7.9 68.65-5.73 70.7-3.55 74.25-3.55L74.25-3.55Q77.9-3.55 80-5.8 82.09-8.05 82.09-12.35L82.09-12.35 82.09-27.4ZM98.89-22.95Q100.09-25.3 102.32-26.6 104.54-27.9 107.74-27.9L107.74-27.9 107.74-23.2 106.54-23.2Q98.89-23.2 98.89-14.9L98.89-14.9 98.89 0 94.34 0 94.34-27.4 98.89-27.4 98.89-22.95ZM126.34-27.9Q131.34-27.9 134.44-24.88 137.54-21.85 137.54-16.15L137.54-16.15 137.54 0 133.04 0 133.04-15.5Q133.04-19.6 130.99-21.78 128.94-23.95 125.39-23.95L125.39-23.95Q121.79-23.95 119.67-21.7 117.54-19.45 117.54-15.15L117.54-15.15 117.54 0 112.99 0 112.99-27.4 117.54-27.4 117.54-23.5Q118.89-25.6 121.22-26.75 123.54-27.9 126.34-27.9L126.34-27.9ZM143.29-13.8Q143.29-18 144.99-21.18 146.69-24.35 149.66-26.1 152.64-27.85 156.29-27.85L156.29-27.85Q159.89-27.85 162.54-26.3 165.19-24.75 166.49-22.4L166.49-22.4 166.49-27.4 171.09-27.4 171.09 0 166.49 0 166.49-5.1Q165.14-2.7 162.46-1.13 159.79 0.45 156.24 0.45L156.24 0.45Q152.59 0.45 149.64-1.35 146.69-3.15 144.99-6.4 143.29-9.65 143.29-13.8L143.29-13.8ZM166.49-13.75Q166.49-16.85 165.24-19.15 163.99-21.45 161.86-22.68 159.74-23.9 157.19-23.9L157.19-23.9Q154.64-23.9 152.54-22.7 150.44-21.5 149.19-19.2 147.94-16.9 147.94-13.8L147.94-13.8Q147.94-10.65 149.19-8.33 150.44-6 152.54-4.78 154.64-3.55 157.19-3.55L157.19-3.55Q159.74-3.55 161.86-4.78 163.99-6 165.24-8.33 166.49-10.65 166.49-13.75L166.49-13.75ZM183.34-22.35Q184.69-24.7 187.36-26.28 190.04-27.85 193.59-27.85L193.59-27.85Q197.24-27.85 200.21-26.1 203.19-24.35 204.89-21.18 206.59-18 206.59-13.8L206.59-13.8Q206.59-9.65 204.89-6.4 203.19-3.15 200.21-1.35 197.24 0.45 193.59 0.45L193.59 0.45Q190.09 0.45 187.41-1.13 184.74-2.7 183.34-5.05L183.34-5.05 183.34 13 178.79 13 178.79-27.4 183.34-27.4 183.34-22.35ZM201.94-13.8Q201.94-16.9 200.69-19.2 199.44-21.5 197.31-22.7 195.19-23.9 192.64-23.9L192.64-23.9Q190.14-23.9 188.01-22.68 185.89-21.45 184.61-19.13 183.34-16.8 183.34-13.75L183.34-13.75Q183.34-10.65 184.61-8.33 185.89-6 188.01-4.78 190.14-3.55 192.64-3.55L192.64-3.55Q195.19-3.55 197.31-4.78 199.44-6 200.69-8.33 201.94-10.65 201.94-13.8L201.94-13.8ZM217.13-22.35Q218.48-24.7 221.16-26.28 223.83-27.85 227.38-27.85L227.38-27.85Q231.03-27.85 234.01-26.1 236.98-24.35 238.68-21.18 240.38-18 240.38-13.8L240.38-13.8Q240.38-9.65 238.68-6.4 236.98-3.15 234.01-1.35 231.03 0.45 227.38 0.45L227.38 0.45Q223.88 0.45 221.21-1.13 218.53-2.7 217.13-5.05L217.13-5.05 217.13 13 212.58 13 212.58-27.4 217.13-27.4 217.13-22.35ZM235.73-13.8Q235.73-16.9 234.48-19.2 233.23-21.5 231.11-22.7 228.98-23.9 226.43-23.9L226.43-23.9Q223.93-23.9 221.81-22.68 219.68-21.45 218.41-19.13 217.13-16.8 217.13-13.75L217.13-13.75Q217.13-10.65 218.41-8.33 219.68-6 221.81-4.78 223.93-3.55 226.43-3.55L226.43-3.55Q228.98-3.55 231.11-4.78 233.23-6 234.48-8.33 235.73-10.65 235.73-13.8L235.73-13.8Z" opacity="1" transform="matrix(1,0,0,1,0,0)" fill="#ffffff" class="undefined-text-0" data-fill-palette-color="quaternary" id="text-0"/>
                              </svg>
                            </g>
                          </svg>
                        </g>
                      </svg>
                    </g>
                  </svg>
                </g>
                <g/>
              </svg>
            </g>
          </svg>
          <rect width="356.12052" height="102.98287317809945" fill="none" stroke="none" visibility="hidden"/>
        </g>
      </svg>
    </g>
  </g>
</svg>